HIERARCHY
ROOT Hips
{
	OFFSET 0.000000 0.000000 0.000000
	CHANNELS 6 Xposition Yposition Zposition Zrotation Yrotation Xrotation 
	JOINT LHipJoint
	{
		OFFSET 0.000000 0.000000 0.000000
		CHANNELS 3 Zrotation Yrotation Xrotation
		JOINT LeftUpLeg
		{
			OFFSET 1.363060 -1.794630 0.839290
			CHANNELS 3 Zrotation Yrotation Xrotation
			JOINT LeftLeg
			{
				OFFSET 2.448110 -6.726130 0.000000
				CHANNELS 3 Zrotation Yrotation Xrotation
				JOINT LeftFoot
				{
					OFFSET 2.562200 -7.039590 0.000000
					CHANNELS 3 Zrotation Yrotation Xrotation
					JOINT LeftToeBase
					{
						OFFSET 0.157640 -0.433110 2.322550
						CHANNELS 3 Zrotation Yrotation Xrotation
						End Site
						{
							OFFSET 0.000000 0.000000 0.000000
						}
					}
				}
			}
		}
	}
	JOINT RHipJoint
	{
		OFFSET 0.000000 0.000000 0.000000
		CHANNELS 3 Zrotation Yrotation Xrotation
		JOINT RightUpLeg
		{
			OFFSET -1.305520 -1.794630 0.839290
			CHANNELS 3 Zrotation Yrotation Xrotation
			JOINT RightLeg
			{
				OFFSET -2.542530 -6.985550 0.000000
				CHANNELS 3 Zrotation Yrotation Xrotation
				JOINT RightFoot
				{
					OFFSET -2.568260 -7.056230 0.000000
					CHANNELS 3 Zrotation Yrotation Xrotation
					JOINT RightToeBase
					{
						OFFSET -0.164730 -0.452590 2.363150
						CHANNELS 3 Zrotation Yrotation Xrotation
						End Site
						{
							OFFSET 0.000000 0.000000 0.000000
						}
					}
				}
			}
		}
	}
	JOINT LowerBack
	{
		OFFSET 0.000000 0.000000 0.000000
		CHANNELS 3 Zrotation Yrotation Xrotation
		JOINT Spine
		{
			OFFSET 0.028270 2.035590 -0.193380
			CHANNELS 3 Zrotation Yrotation Xrotation
			JOINT Spine1
			{
				OFFSET 0.056720 2.048850 -0.042750
				CHANNELS 3 Zrotation Yrotation Xrotation
				JOINT Neck
				{
					OFFSET 0.000000 0.000000 0.000000
					CHANNELS 3 Zrotation Yrotation Xrotation
					JOINT Neck1
					{
						OFFSET -0.054170 1.746240 0.172020
						CHANNELS 3 Zrotation Yrotation Xrotation
						JOINT Head
						{
							OFFSET 0.104070 1.761360 -0.123970
							CHANNELS 3 Zrotation Yrotation Xrotation
							End Site
							{
								OFFSET 0.000000 0.000000 0.000000
							}
						}
					}
				}
				JOINT LeftShoulder
				{
					OFFSET 0.000000 0.000000 0.000000
					CHANNELS 3 Zrotation Yrotation Xrotation
					JOINT LeftArm
					{
						OFFSET 3.362410 1.200890 -0.311210
						CHANNELS 3 Zrotation Yrotation Xrotation
						JOINT LeftForeArm
						{
							OFFSET 4.983000 -0.000000 -0.000000
							CHANNELS 3 Zrotation Yrotation Xrotation
							JOINT LeftHand
							{
								OFFSET 3.483560 -0.000000 -0.000000
								CHANNELS 3 Zrotation Yrotation Xrotation
								JOINT LeftFingerBase
								{
									OFFSET 0.000000 0.000000 0.000000
									CHANNELS 3 Zrotation Yrotation Xrotation
									JOINT LeftHandIndex1
									{
										OFFSET 0.715260 -0.000000 -0.000000
										CHANNELS 3 Zrotation Yrotation Xrotation
										End Site
										{
											OFFSET 0.000000 0.000000 0.000000
										}
									}
								}
								JOINT LThumb
								{
									OFFSET 0.000000 0.000000 0.000000
									CHANNELS 3 Zrotation Yrotation Xrotation
									End Site
									{
										OFFSET 0.000000 0.000000 0.000000
									}
								}
							}
						}
					}
				}
				JOINT RightShoulder
				{
					OFFSET 0.000000 0.000000 0.000000
					CHANNELS 3 Zrotation Yrotation Xrotation
					JOINT RightArm
					{
						OFFSET -3.136600 1.374050 -0.404650
						CHANNELS 3 Zrotation Yrotation Xrotation
						JOINT RightForeArm
						{
							OFFSET -5.241900 -0.000000 -0.000000
							CHANNELS 3 Zrotation Yrotation Xrotation
							JOINT RightHand
							{
								OFFSET -3.444170 -0.000000 -0.000000
								CHANNELS 3 Zrotation Yrotation Xrotation
								JOINT RightFingerBase
								{
									OFFSET 0.000000 0.000000 0.000000
									CHANNELS 3 Zrotation Yrotation Xrotation
									JOINT RightHandIndex1
									{
										OFFSET -0.622530 -0.000000 -0.000000
										CHANNELS 3 Zrotation Yrotation Xrotation
										End Site
										{
											OFFSET 0.000000 0.000000 0.000000
										}
									}
								}
								JOINT RThumb
								{
									OFFSET 0.000000 0.000000 0.000000
									CHANNELS 3 Zrotation Yrotation Xrotation
									End Site
									{
										OFFSET 0.000000 0.000000 0.000000
									}
								}
							}
						}
					}
				}
			}
		}
	}
}
MOTION
Frames: 11
Frame Time: 0.008333
1.715702 17.413051 0.225400 6.686051 -55.715864 -8.491274 -8.216743 3.829279 7.772374 -5.344598 -16.291438 -0.258001 -2.378492 -0.458057 3.209943 -0.167773 0.799904 8.067257 0.609200 -0.000000 -54.776400 12.342774 -3.937066 -1.998011 -5.628952 -32.845497 10.642485 0.290019 0.059707 2.037103 -3.386521 -22.634242 7.728626 -7.090600 0.000000 -67.186300 -8.306888 1.676554 -8.325186 -2.703506 2.112592 -4.526172 -4.711073 2.068254 -0.897359 -1.509861 -3.924090 -5.719895 -0.708744 -0.082501 0.539762 0.000000 0.000000 0.000000 9.125014 10.286695 -1.297079 -18.829076 -8.191463 -16.229106 179.434159 -67.908430 -179.995340 -1.559831 -3.741186 0.064645 0.160657 0.598597 0.000000 0.000000 0.000000 0.000000 0.000000 0.000000 0.000000 -8.049759 2.726029 1.525649 5.224721 48.214137 -43.623750 -1.357392 1.778885 -0.052656 -11.705022 7.068592 -0.778930 0.206208 -0.384745 -0.000000 0.000000 0.000000 0.000000 0.000000 0.000000 0.000000 
1.718304 17.419768 0.216669 6.760947 -55.667738 -8.520717 -8.215029 3.810120 7.766206 -5.364565 -16.402668 -0.365023 -2.372084 -0.442400 3.342352 -0.163288 0.864056 8.224456 0.628500 0.000000 -54.891699 12.352496 -3.924530 -2.046043 -5.647407 -33.023013 10.586371 0.299486 0.064330 1.949590 -3.395984 -22.703837 7.761002 -7.126100 0.000000 -66.877799 -8.382319 1.733701 -8.236156 -2.710113 2.182902 -4.510619 -4.672302 2.140601 -0.909356 -1.457383 -4.241675 -5.796640 -0.667451 -0.078429 0.520138 0.000000 0.000000 0.000000 9.237618 10.209953 -1.328150 -19.421316 -7.895208 -16.326275 179.420807 -67.580298 -179.996190 -1.464427 -3.734097 0.060840 0.159094 0.599874 0.000000 0.000000 0.000000 0.000000 0.000000 0.000000 0.000000 -8.207076 2.505030 1.519525 4.544880 48.653185 -44.366136 -1.412895 1.733650 -0.053560 -11.929964 6.128879 -0.692346 0.215472 -0.369549 -0.000000 0.000000 0.000000 0.000000 0.000000 0.000000 0.000000 
1.722113 17.424694 0.210028 6.816958 -55.590832 -8.497642 -8.212889 3.784750 7.767611 -5.379312 -16.598881 -0.499916 -2.364288 -0.427052 3.482189 -0.151685 0.980387 8.315807 0.659200 0.000000 -54.935300 12.356610 -3.903177 -2.097472 -5.637831 -33.129006 10.530409 0.305720 0.068144 1.877171 -3.407172 -22.775032 7.782232 -7.160000 -0.000001 -66.649000 -8.418125 1.759635 -8.148218 -2.704682 2.217962 -4.490625 -4.635442 2.178661 -0.905246 -1.447336 -4.780576 -5.891775 -0.607790 -0.072881 0.497424 0.000000 0.000000 0.000000 9.208934 10.184305 -1.334895 -19.871017 -7.535188 -16.427002 179.413972 -67.214177 -179.997213 -1.351048 -3.749352 0.056733 0.156412 0.601603 0.000000 0.000000 0.000000 0.000000 0.000000 0.000000 0.000000 -8.494222 2.080596 1.419386 4.472025 49.168463 -44.321548 -1.485254 2.453533 -0.052930 -11.534512 5.535919 -0.607449 0.208153 -0.363706 -0.000000 0.000000 0.000000 0.000000 0.000000 0.000000 0.000000 
1.727111 17.427640 0.205494 6.859097 -55.502539 -8.431838 -8.211029 3.755393 7.774184 -5.389898 -16.850597 -0.654136 -2.355829 -0.413050 3.617503 -0.134354 1.136132 8.344012 0.698000 0.000000 -54.912500 12.355250 -3.874068 -2.147413 -5.601454 -33.154467 10.473094 0.308055 0.071455 1.821161 -3.420071 -22.846293 7.787404 -7.190000 -0.000000 -66.506700 -8.416549 1.754386 -8.065696 -2.691377 2.216930 -4.468707 -4.612548 2.181786 -0.888376 -1.448947 -5.478763 -5.994304 -0.544296 -0.067008 0.474129 0.000000 0.000000 0.000000 9.078516 10.206682 -1.316195 -20.203051 -7.086958 -16.529935 179.415591 -66.801972 -179.998241 -1.236140 -3.779623 0.052625 0.152860 0.603518 -0.000000 0.000000 0.000000 0.000000 0.000000 0.000000 0.000000 -8.821522 1.507761 1.234439 4.895622 49.695698 -43.058931 -1.561592 3.953808 -0.050824 -10.608910 5.170550 -0.523836 0.186841 -0.365671 -0.000000 0.000000 0.000000 0.000000 0.000000 0.000000 0.000000 
1.732986 17.428542 0.203037 6.889450 -55.421606 -8.333782 -8.207901 3.726347 7.786115 -5.396258 -17.125582 -0.818217 -2.347772 -0.401825 3.735025 -0.113164 1.315248 8.314573 0.741000 0.000000 -54.832800 12.350839 -3.839929 -2.188093 -5.540943 -33.097913 10.412232 0.306510 0.075209 1.781091 -3.433606 -22.911304 7.770211 -7.211400 0.000000 -66.447400 -8.395382 1.718411 -7.998815 -2.679622 2.180146 -4.448642 -4.619451 2.150319 -0.858730 -1.394328 -6.241359 -6.089818 -0.502253 -0.062789 0.453277 0.000000 0.000000 0.000000 8.933515 10.266102 -1.273745 -20.480857 -6.527176 -16.625566 179.426887 -66.327277 -179.999064 -1.140507 -3.813609 0.049112 0.148926 0.605320 0.000000 0.000000 0.000000 0.000000 0.000000 0.000000 0.000000 -9.015043 0.869752 0.992258 5.599994 50.028855 -39.784825 -1.622761 6.432604 -0.048153 -9.432602 4.708795 -0.426813 0.158889 -0.371098 -0.000000 0.000000 0.000000 0.000000 0.000000 0.000000 0.000000 
1.739259 17.427350 0.202579 6.907938 -55.367705 -8.213722 -8.200783 3.702757 7.805572 -5.397498 -17.391227 -0.982794 -2.341219 -0.394924 3.821292 -0.090200 1.500552 8.234497 0.783900 0.000000 -54.707600 12.346962 -3.804337 -2.210208 -5.460041 -32.963597 10.345607 0.301671 0.080829 1.753212 -3.446085 -22.961284 7.724597 -7.218200 0.000000 -66.460000 -8.379294 1.650790 -7.961695 -2.673812 2.108954 -4.434609 -4.646445 2.084455 -0.815076 -1.242530 -6.928328 -6.157369 -0.499652 -0.061840 0.439712 0.000000 0.000000 0.000000 8.847553 10.349502 -1.208538 -20.782790 -5.830862 -16.701745 179.449637 -65.779905 -179.999489 -1.082907 -3.841170 0.047096 0.145043 0.606650 -0.000000 0.000000 0.000000 0.000000 0.000000 0.000000 0.000000 -8.947802 0.291287 0.733353 6.243499 49.892740 -34.555313 -1.657079 10.075419 -0.046424 -8.412173 3.998176 -0.327380 0.132897 -0.377988 -0.000000 0.000000 0.000000 0.000000 0.000000 0.000000 0.000000 
1.745733 17.424126 0.203804 6.916536 -55.358931 -8.082113 -8.189376 3.687298 7.831997 -5.393283 -17.618718 -1.139776 -2.336746 -0.393134 3.864642 -0.067303 1.676505 8.113176 0.822699 -0.000000 -54.550200 12.344837 -3.769148 -2.208986 -5.361404 -32.756912 10.272644 0.294252 0.089366 1.731286 -3.456545 -22.991142 7.646399 -7.207100 -0.000000 -66.530300 -8.378318 1.550555 -7.960046 -2.667800 2.005818 -4.428737 -4.659865 1.984822 -0.761383 -1.023478 -7.434380 -6.179724 -0.534290 -0.064325 0.437833 0.000000 0.000000 0.000000 8.821413 10.456907 -1.120399 -21.152779 -4.987957 -16.758071 179.485974 -65.168612 -179.999419 -1.072570 -3.858438 0.046680 0.141379 0.607179 0.000000 0.000000 0.000000 0.000000 0.000000 0.000000 0.000000 -8.637386 -0.136711 0.481514 6.506738 49.236298 -28.834779 -1.671702 14.710475 -0.046794 -7.819579 3.299014 -0.256043 0.112571 -0.388792 0.000000 0.000000 0.000000 0.000000 0.000000 0.000000 0.000000 
1.752228 17.419032 0.206277 6.927718 -55.407144 -7.947977 -8.176912 3.679071 7.859207 -5.385085 -17.786875 -1.282784 -2.334459 -0.396598 3.855524 -0.045849 1.831856 7.962064 0.854900 -0.000000 -54.373000 12.342612 -3.733427 -2.187742 -5.248917 -32.484340 10.193419 0.285259 0.101190 1.708550 -3.464723 -22.998079 7.532172 -7.175600 -0.000000 -66.636100 -8.382637 1.421614 -7.982807 -2.653257 1.875779 -4.430114 -4.639446 1.855547 -0.709186 -0.801341 -7.771161 -6.156724 -0.588068 -0.068987 0.448045 0.000000 0.000000 0.000000 8.806495 10.603703 -1.011305 -21.582761 -4.019983 -16.810608 179.536548 -64.525056 -179.998870 -1.107737 -3.867334 0.048066 0.137891 0.606783 -0.000000 0.000000 0.000000 0.000000 0.000000 0.000000 0.000000 -8.217922 -0.431454 0.219521 6.437932 48.309599 -24.084565 -1.690053 19.869316 -0.049432 -7.648202 2.973438 -0.229016 0.095902 -0.406248 -0.000000 0.000000 0.000000 0.000000 0.000000 0.000000 0.000000 
1.758754 17.412338 0.209493 6.949024 -55.517265 -7.816069 -8.166723 3.676218 7.880572 -5.373782 -17.881704 -1.408327 -2.334178 -0.405204 3.789178 -0.026944 1.958673 7.792218 0.878600 0.000000 -54.187700 12.338382 -3.696497 -2.151547 -5.125248 -32.154650 10.108813 0.275791 0.116432 1.677047 -3.470729 -22.982331 7.381529 -7.123900 -0.000000 -66.757200 -8.383967 1.272484 -8.015897 -2.629278 1.726415 -4.436390 -4.591226 1.704502 -0.665568 -0.601267 -8.012188 -6.100069 -0.647705 -0.074678 0.467442 0.000000 0.000000 0.000000 8.780430 10.800312 -0.888051 -22.059246 -2.968424 -16.876337 179.599325 -63.884580 -179.997920 -1.181943 -3.869813 0.050854 0.134650 0.605508 0.000000 0.000000 0.000000 0.000000 0.000000 0.000000 0.000000 -7.780627 -0.663200 -0.075886 6.282053 47.342122 -20.656970 -1.720027 25.215479 -0.054141 -7.793377 3.079287 -0.241807 0.080925 -0.429058 -0.000000 0.000000 0.000000 0.000000 0.000000 0.000000 0.000000 
1.765375 17.404282 0.212973 6.982217 -55.688659 -7.688882 -8.160410 3.677296 7.892328 -5.359196 -17.897193 -1.516299 -2.335723 -0.418678 3.666506 -0.011512 2.051233 7.613282 0.893000 0.000000 -54.004500 12.331672 -3.658688 -2.104005 -4.991847 -31.779616 10.019879 0.266867 0.135311 1.627985 -3.474848 -22.946547 7.196700 -7.053400 -0.000000 -66.878100 -8.383090 1.112172 -8.050099 -2.599123 1.565960 -4.444832 -4.526971 1.540528 -0.629485 -0.418115 -8.224493 -6.022636 -0.707023 -0.080717 0.492535 0.000000 0.000000 0.000000 8.748489 11.046466 -0.759523 -22.581559 -1.877773 -16.966801 179.670622 -63.271324 -179.996676 -1.286740 -3.865378 0.054748 0.131806 0.603450 0.000000 0.000000 0.000000 0.000000 0.000000 0.000000 0.000000 -7.357494 -0.892749 -0.411817 6.233344 46.428520 -18.338936 -1.749147 30.612077 -0.060676 -8.162556 3.476552 -0.283117 0.067117 -0.453985 -0.000000 0.000000 0.000000 0.000000 0.000000 0.000000 0.000000 
1.771800 17.395226 0.216440 7.026210 -55.915883 -7.561877 -8.158425 3.681716 7.893834 -5.338485 -17.832295 -1.613957 -2.338678 -0.436688 3.496050 -0.000382 2.104175 7.431338 0.897400 0.000000 -53.831599 12.322945 -3.621621 -2.045779 -4.844969 -31.368828 9.924195 0.259301 0.158331 1.552606 -3.478202 -22.899419 6.983029 -6.969500 0.000000 -66.987000 -8.384839 0.948265 -8.083539 -2.566869 1.401717 -4.453327 -4.456711 1.371464 -0.594920 -0.234402 -8.455645 -5.935394 -0.764632 -0.086805 0.520234 0.000000 0.000000 0.000000 8.724800 11.332552 -0.634480 -23.152073 -0.785881 -17.086841 179.746142 -62.699915 -179.995268 -1.410357 -3.853810 0.059242 0.129434 0.600725 -0.000000 0.000000 0.000000 0.000000 0.000000 0.000000 0.000000 -6.942811 -1.161998 -0.780712 6.374991 45.584197 -16.832040 -1.757016 36.018824 -0.068738 -8.692972 3.999488 -0.342944 0.054786 -0.478249 -0.000000 0.000000 0.000000 0.000000 0.000000 0.000000 0.000000 
